<svg viewBox="0 0 263 64" fill="inherit" xmlns="http://www.w3.org/2000/svg">
<path d="M22.5773 42L22.5773 23.2306H30.3584C33.3289 23.2306 35.6948 24.6501 35.6948 28.3304C35.6948 30.7226 34.4067 31.7478 33.0398 32.4313L33.066 32.5627C34.5644 33.1411 36.0628 34.5606 36.0628 36.9265C36.0628 40.7645 33.5129 42 30.8842 42H22.5773ZM24.8117 31.6164L30.4373 31.6427C32.1985 31.6427 33.4078 30.6437 33.4078 28.4356C33.4078 26.2274 32.3037 25.2022 30.2795 25.2022H24.838L24.8117 31.6164ZM24.838 40.0021H30.5424C32.5403 40.0021 33.7232 39.1084 33.7232 36.8739C33.7232 34.7709 32.6454 33.5879 30.6213 33.5879H24.838V40.0021ZM44.3342 42.2103C41.0745 42.2103 39.0767 40.081 39.0767 36.7425V28.4356H41.2323V36.2693C41.2323 38.714 41.9946 40.1862 44.4656 40.1862C46.4372 40.1862 48.5665 38.2146 48.5665 35.5858V28.4356L50.7221 28.4356V42H48.5665V39.897C47.6727 41.0536 46.3058 42.2103 44.3342 42.2103ZM54.5788 42L54.5788 28.4356H56.7344L56.7344 42H54.5788ZM54.5788 25.6228V23.2043H56.7344V25.6228H54.5788ZM60.2631 42L60.2631 22.6786H62.3924L62.3924 42H60.2631ZM70.5186 42.0789C67.8898 42.0789 66.4703 39.529 66.4703 37.1368V30.4597H64.4198V28.4356C66.1811 28.4356 66.4703 27.6995 66.4703 25.4388H68.6259V28.4356H72.4113V30.4597H68.6259V36.8739C68.6259 38.2409 69.4145 39.9496 70.6763 39.9496L72.4113 39.9758V42L70.5186 42.0789ZM98.8815 41.9737L94.8332 27.0949L90.7849 41.9737H86.7103L81.6105 23.178H84.0027L88.419 39.9496H89.1814L93.6503 23.178L96.1739 23.178L100.59 39.9496H101.353L105.821 23.178H108.082L102.956 41.9737H98.8815ZM110.825 42V28.4356H112.981V42H110.825ZM110.825 25.6228V23.2043H112.981V25.6228H110.825ZM121.425 42.0789C118.797 42.0789 117.377 39.529 117.377 37.1368V30.4597H115.327V28.4356C117.088 28.4356 117.377 27.6995 117.377 25.4388H119.533V28.4356H123.318V30.4597H119.533V36.8739C119.533 38.2409 120.321 39.9496 121.583 39.9496L123.318 39.9758V42L121.425 42.0789ZM135.467 34.1663C135.467 31.7215 134.704 30.2494 132.233 30.2494C130.262 30.2494 128.132 32.221 128.132 34.8498L128.106 34.5869L128.132 42H126.029L125.95 22.6786H128.053L128.08 30.5912C128.974 29.4345 130.367 28.2253 132.365 28.2253C135.624 28.2253 137.622 30.3546 137.622 33.6931V42H135.467V34.1663Z"/>
<g clip-path="url(#clip0_1335_18903)">
<path d="M188.682 16H186.882H183.55V19.5753H186.882V47.5584H190.481V16H188.682Z"/>
<path d="M216.118 36.5684C216.118 29.0205 211.897 24.5186 205.41 24.5186C198.923 24.5186 194.657 28.8001 194.657 36.3473C194.657 43.8944 198.878 47.9998 205.41 47.9998C210.564 47.9998 214.43 45.0422 215.496 40.9376H211.497C210.608 42.8359 208.787 44.5129 205.41 44.5129C201.055 44.5129 198.834 41.7765 198.39 37.8481H216.118V36.5684ZM198.434 34.4498C198.967 30.6541 201.278 27.9612 205.41 27.9612C209.542 27.9612 211.719 30.6098 212.253 34.4498H198.434Z"/>
<path d="M230.292 24.5186C223.76 24.5186 219.539 28.8001 219.539 36.3473C219.539 43.8944 223.76 47.9998 230.292 47.9998C236.824 47.9998 241 44.0271 241 36.3473C241 28.6674 236.779 24.5186 230.292 24.5186ZM230.292 44.6014C225.626 44.6014 223.093 40.9819 223.093 36.3038C223.093 31.6257 225.626 27.8734 230.292 27.8734C234.957 27.8734 237.445 31.5372 237.445 36.3038C237.445 41.0703 235.002 44.6014 230.292 44.6014Z"/>
<path d="M172.709 16H169.207H165.377L159.014 34.45H162.889L168.043 19.3984H169.91L175.064 34.45H167.959H162.889L161.69 37.8484H169.114H176.219L179.551 47.5584H183.55L172.709 16Z" />
<path d="M154.491 47.5582H158.357L161.69 37.8481H157.841L154.491 47.5582Z" />
<path d="M155.173 34.4502L154 37.8486H157.841L159.014 34.4502H155.173Z" />
</g>
<defs>
<clipPath id="clip0_1335_18903">
<rect width="87" height="32" transform="translate(154 16)"/>
</clipPath>
</defs>
</svg>
